<svg width="18" height="18" viewBox="0 0 18 18" xmlns="http://www.w3.org/2000/svg"><g id="Symbols" stroke="none" stroke-width="1" fill="none" fill-rule="evenodd"><g id="CC-Footer--Desktop" transform="translate(-356 -224)" fill="#FFF"><g id="Group-43"><g id="Group-42" transform="translate(230 30)"><g id="Group-41" transform="translate(0 68)"><g id="Group-40"><g id="Group-39" transform="translate(5 31)"><g id="Group-38"><g id="Group-37" transform="translate(0 54)"><g id="Group-36" transform="translate(0 29)"><g id="#3" transform="translate(108)"><path d="M26.033 12A4.973 4.973 0 0131 16.967v8.065A4.973 4.973 0 0126.033 30h-8.066A4.973 4.973 0 0113 25.032v-8.065A4.973 4.973 0 0117.967 12h8.066zm3.37 13.032v-8.065a3.374 3.374 0 00-3.37-3.37h-8.066a3.374 3.374 0 00-3.37 3.37v8.065a3.374 3.374 0 003.37 3.37h8.066a3.374 3.374 0 003.37-3.37zM22 16.362A4.643 4.643 0 0126.638 21 4.643 4.643 0 0122 25.638 4.643 4.643 0 0117.362 21 4.643 4.643 0 0122 16.362zm0 7.679A3.044 3.044 0 0025.041 21 3.044 3.044 0 0022 17.96 3.044 3.044 0 0018.959 21 3.044 3.044 0 0022 24.04zm4.833-9.033c.308 0 .61.124.828.342.218.218.343.52.343.829 0 .308-.125.61-.343.828a1.18 1.18 0 01-.828.343 1.18 1.18 0 01-.828-.343 1.18 1.18 0 01-.344-.828 1.175 1.175 0 011.171-1.171z" id="icon_instagram"/></g></g></g></g></g></g></g></g></g></g></g></svg>