<svg width="18" height="15" viewBox="0 0 18 15" xmlns="http://www.w3.org/2000/svg"><g id="Symbols" stroke="none" stroke-width="1" fill="none" fill-rule="evenodd"><g id="CC-Footer--Desktop" transform="translate(-248 -227)" fill="#FFF"><g id="Group-43"><g id="Group-42" transform="translate(230 30)"><g id="Group-41" transform="translate(0 68)"><g id="Group-40"><g id="Group-39" transform="translate(5 31)"><g id="Group-38"><g id="Group-37" transform="translate(0 54)"><g id="Group-36" transform="translate(0 29)"><g id="#1"><path d="M30.504 15.278a7.317 7.317 0 01-2.347.919A3.64 3.64 0 0025.463 15c-2.04 0-3.694 1.697-3.694 3.787 0 .297.033.586.096.863-3.069-.158-5.79-1.666-7.611-3.957a3.835 3.835 0 00-.5 1.903c0 1.315.653 2.474 1.643 3.153a3.614 3.614 0 01-1.673-.476v.047c0 1.835 1.274 3.365 2.962 3.715a3.64 3.64 0 01-1.668.064c.47 1.504 1.833 2.6 3.449 2.631A7.294 7.294 0 0113 28.298 10.268 10.268 0 0018.66 30c6.793 0 10.507-5.772 10.507-10.776l-.012-.491A7.532 7.532 0 0031 16.775a7.236 7.236 0 01-2.12.597 3.794 3.794 0 001.624-2.094z" id="icon_twitter"/></g></g></g></g></g></g></g></g></g></g></g></svg>