<svg width="21" height="15" viewBox="0 0 21 15" xmlns="http://www.w3.org/2000/svg"><g id="Symbols" stroke="none" stroke-width="1" fill="none" fill-rule="evenodd"><g id="CC-Footer--Desktop" transform="translate(-409 -226)" fill="#FFF"><g id="Group-43"><g id="Group-42" transform="translate(230 30)"><g id="Group-41" transform="translate(0 68)"><g id="Group-40"><g id="Group-39" transform="translate(5 31)"><g id="Group-38"><g id="Group-37" transform="translate(0 54)"><g id="Group-36" transform="translate(0 29)"><g id="#4" transform="translate(162)"><path d="M32.182 15.288c.761.918.818 2.326.818 4.367v3.69c0 2.34-.364 3.691-1.216 4.519-.83.807-2.115 1.136-4.433 1.136H17.65C12.874 29 12 27.096 12 23.345v-3.69c0-1.936 0-3.335.736-4.284.755-.974 2.179-1.371 4.913-1.371h9.702c2.673 0 4.072.373 4.83 1.288zm-6.7 6.722a.69.69 0 00.364-.61.689.689 0 00-.365-.61l-4.406-2.322a.668.668 0 00-.664.023.69.69 0 00-.326.587v4.66c0 .24.124.463.326.587a.667.667 0 00.665.021l4.406-2.336z" id="icon_youtube"/></g></g></g></g></g></g></g></g></g></g></g></svg>